HIERARCHY
ROOT Hips
{
	OFFSET 15.585500 22.159004 44.358299
	CHANNELS 6 Xposition Yposition Zposition Zrotation Xrotation Yrotation
	JOINT Chest
	{
		OFFSET -0.128500 0.160400 6.566002
		CHANNELS 6 Xposition Yposition Zposition Zrotation Xrotation Yrotation
		JOINT Chest2
		{
			OFFSET 0.000000 0.000000 3.554802
			CHANNELS 6 Xposition Yposition Zposition Zrotation Xrotation Yrotation
			JOINT Neck
			{
				OFFSET 0.000000 0.000000 8.267998
				CHANNELS 6 Xposition Yposition Zposition Zrotation Xrotation Yrotation
				JOINT Head
				{
					OFFSET 0.000000 0.000002 2.173897
					CHANNELS 6 Xposition Yposition Zposition Zrotation Xrotation Yrotation
					End Site
					{
						OFFSET 0.000000 0.000000 7.718697
					}
				}
			}
			JOINT LeftCollar
			{
				OFFSET 2.057500 0.117599 5.946301
				CHANNELS 6 Xposition Yposition Zposition Zrotation Xrotation Yrotation
				JOINT LeftShoulder
				{
					OFFSET 4.957699 0.000000 0.000000
					CHANNELS 6 Xposition Yposition Zposition Zrotation Xrotation Yrotation
					JOINT LeftElbow
					{
						OFFSET 0.000000 0.000000 -8.465500
						CHANNELS 6 Xposition Yposition Zposition Zrotation Xrotation Yrotation
						JOINT LeftWrist
						{
							OFFSET 0.000000 -0.000002 -14.594898
							CHANNELS 6 Xposition Yposition Zposition Zrotation Xrotation Yrotation
							End Site
							{
								OFFSET 0.000000 0.000000 -2.173901
							}
						}
					}
				}
			}
			JOINT RightCollar
			{
				OFFSET -3.048500 -0.728800 6.604099
				CHANNELS 6 Xposition Yposition Zposition Zrotation Xrotation Yrotation
				JOINT RightShoulder
				{
					OFFSET -3.710299 0.000000 0.000000
					CHANNELS 6 Xposition Yposition Zposition Zrotation Xrotation Yrotation
					JOINT RightElbow
					{
						OFFSET 0.000000 0.000000 -10.450901
						CHANNELS 6 Xposition Yposition Zposition Zrotation Xrotation Yrotation
						JOINT RightWrist
						{
							OFFSET 0.000000 0.000000 -12.539200
							CHANNELS 6 Xposition Yposition Zposition Zrotation Xrotation Yrotation
							End Site
							{
								OFFSET 0.000000 -0.000002 -2.173901
							}
						}
					}
				}
			}
		}
	}
	JOINT LeftHip
	{
		OFFSET 2.442599 -0.601400 -2.767502
		CHANNELS 6 Xposition Yposition Zposition Zrotation Xrotation Yrotation
		JOINT LeftKnee
		{
			OFFSET 0.000000 -0.000002 -17.033703
			CHANNELS 6 Xposition Yposition Zposition Zrotation Xrotation Yrotation
			JOINT LeftAnkle
			{
				OFFSET 0.000000 -0.000002 -19.318800
				CHANNELS 6 Xposition Yposition Zposition Zrotation Xrotation Yrotation
				End Site
				{
					OFFSET 0.000000 -8.281900 0.000000
				}
			}
		}
	}
	JOINT RightHip
	{
		OFFSET -3.126200 -0.601400 -2.283501
		CHANNELS 6 Xposition Yposition Zposition Zrotation Xrotation Yrotation
		JOINT RightKnee
		{
			OFFSET 0.000000 -0.000002 -16.919401
			CHANNELS 6 Xposition Yposition Zposition Zrotation Xrotation Yrotation
			JOINT RightAnkle
			{
				OFFSET 0.000000 -0.000002 -18.035900
				CHANNELS 6 Xposition Yposition Zposition Zrotation Xrotation Yrotation
				End Site
				{
					OFFSET 0.000000 -9.230099 0.000000
				}
			}
		}
	}
}
MOTION
Frames: 7
Frame Time: 0.041667
18.187202 37.876106 10.208694 -47.321251 25.726305 -20.699161 -0.128501 0.160399 6.566002 0.282490 5.975690 23.430097 -0.000000 0.000006 3.554809 -3.831654 -10.917060 -1.473601 0.000001 0.000000 8.268000 25.974697 -10.785267 25.963571 0.000001 0.000003 2.173906 5.217443 -7.957656 4.978203 2.057507 0.117598 5.946304 11.961589 -13.598785 19.322810 4.957693 -0.000005 0.000007 -22.715818 -18.590559 -106.120834 -0.000003 -0.000001 -8.465500 817.153997 -115.137059 415.565184 -0.000001 0.000003 -14.594902 -992.886787 -14.144582 -286.235169 -3.048498 -0.728799 6.604101 37.390078 11.079264 14.148850 -3.710293 0.000003 -0.000003 -7.724001 -3.554300 121.140727 0.000003 -0.000003 -10.450892 1180.050472 -181.752632 1261.730682 -0.000003 0.000000 -12.539193 104.230633 187.508623 -226.795489 2.442592 -0.601401 -2.767509 123.229645 2.321896 126.214246 -0.000005 -0.000003 -17.033710 -467.290179 38.327593 423.586312 0.000002 0.000001 -19.318798 -158.513828 154.911067 550.306757 -3.126200 -0.601402 -2.283502 -117.724785 -38.832214 -108.104286 -0.000003 -0.000002 -16.919394 417.850319 -39.199572 -142.594788 -0.000000 -0.000002 -18.035898 221.412357 49.321117 -79.303810
18.186504 37.882401 10.203899 -47.239275 25.908649 -20.703050 -0.128493 0.160397 6.566007 0.165200 5.783747 23.437924 -0.000002 -0.000001 3.554806 -3.890954 -10.858446 -1.478214 -0.000001 0.000002 8.267996 26.077935 -10.831893 26.013488 0.000001 0.000002 2.173896 5.258192 -7.948972 5.031669 2.057507 0.117595 5.946303 12.075489 -13.718618 19.125616 4.957695 0.000004 0.000006 -22.636896 -18.938339 -105.862441 0.000002 0.000002 -8.465504 815.835279 -115.319548 414.569533 -0.000001 0.000004 -14.594896 -993.557456 -14.359368 -287.270216 -3.048499 -0.728803 6.604102 37.194772 10.498263 14.578316 -3.710293 -0.000000 0.000001 -7.180191 -3.206771 120.796472 0.000003 0.000001 -10.450897 1181.395527 -181.834321 1261.783903 0.000003 0.000003 -12.539198 103.132783 187.649749 -226.691861 2.442598 -0.601405 -2.767500 123.248919 2.447685 126.339307 -0.000001 -0.000004 -17.033707 -467.620924 37.962741 423.799660 0.000000 0.000000 -19.318802 -158.247833 155.148553 550.679849 -3.126193 -0.601400 -2.283501 -117.851185 -38.565867 -108.319963 -0.000007 -0.000004 -16.919395 417.963563 -39.162874 -142.620292 -0.000004 -0.000004 -18.035900 221.396921 49.325290 -79.287138
18.188400 37.887806 10.198208 -47.147221 26.095238 -20.726088 -0.128500 0.160401 6.566004 0.162907 5.523083 23.429816 0.000003 -0.000005 3.554809 -3.932318 -10.797213 -1.475795 -0.000002 -0.000001 8.267996 26.010380 -10.762955 26.048272 -0.000001 -0.000001 2.173896 5.299840 -8.087976 4.971431 2.057505 0.117600 5.946302 11.839470 -13.669245 18.992266 4.957695 0.000006 -0.000000 -22.484771 -19.129727 -105.867153 -0.000002 0.000004 -8.465506 815.339680 -115.389407 414.209883 -0.000003 -0.000001 -14.594897 -993.709141 -14.044483 -287.729423 -3.048495 -0.728803 6.604100 37.435109 10.681408 14.479417 -3.710287 -0.000005 -0.000007 -7.493264 -3.094494 120.790584 0.000004 -0.000003 -10.450887 1182.930735 -181.936746 1261.898432 0.000001 0.000006 -12.539198 101.566409 187.824820 -225.627226 2.442593 -0.601399 -2.767502 123.247581 2.622291 126.474203 -0.000003 0.000000 -17.033703 -467.816103 37.807986 423.955251 0.000003 -0.000001 -19.318802 -158.150640 155.290170 550.772248 -3.126204 -0.601395 -2.283502 -117.996723 -38.291389 -108.543427 -0.000003 -0.000005 -16.919395 418.073666 -39.131421 -142.666860 -0.000005 -0.000001 -18.035896 221.373972 49.328296 -79.267419
18.183102 37.887409 10.194103 -47.079005 26.253248 -20.859140 -0.128498 0.160398 6.566004 0.168424 5.253838 23.651950 -0.000002 -0.000001 3.554808 -3.883145 -10.694558 -1.456362 0.000003 0.000004 8.268000 25.814092 -10.734775 26.002228 0.000004 0.000000 2.173905 5.261237 -8.229539 4.888773 2.057504 0.117607 5.946306 11.440376 -13.569141 18.811027 4.957698 -0.000001 0.000007 -22.344885 -19.196873 -105.968152 0.000002 0.000005 -8.465498 815.828503 -115.418845 414.392194 0.000000 0.000004 -14.594893 -993.662696 -13.613711 -287.689590 -3.048500 -0.728793 6.604101 37.262118 10.636815 14.210471 -3.710295 0.000000 -0.000001 -7.441260 -2.863780 120.939127 0.000005 0.000003 -10.450895 1182.754899 -182.008586 1262.038204 -0.000002 0.000008 -12.539202 101.413160 187.764059 -225.456785 2.442593 -0.601401 -2.767508 123.247075 2.982351 126.511824 -0.000002 -0.000005 -17.033705 -468.068383 37.711274 424.147234 0.000002 -0.000001 -19.318802 -158.128264 155.374728 550.737168 -3.126202 -0.601397 -2.283504 -118.140648 -38.322791 -108.772784 -0.000001 0.000001 -16.919399 418.003342 -39.159882 -142.684537 -0.000004 -0.000002 -18.035896 221.310519 49.323313 -79.233528
18.178604 37.885601 10.189499 -47.083991 26.294779 -21.013678 -0.128501 0.160400 6.566006 0.058895 5.254118 23.979587 0.000004 -0.000003 3.554808 -3.831183 -10.682149 -1.450974 0.000000 0.000006 8.267998 25.732705 -10.859137 25.988622 -0.000003 0.000001 2.173898 5.306553 -8.322201 4.783651 2.057505 0.117612 5.946302 11.206807 -13.609546 18.599510 4.957696 0.000010 0.000001 -22.322238 -19.359133 -105.985890 0.000000 0.000003 -8.465509 816.212961 -115.520110 414.748593 -0.000000 0.000006 -14.594897 -992.989513 -12.859211 -287.230054 -3.048502 -0.728796 6.604100 36.855308 10.268513 14.005144 -3.710294 -0.000006 -0.000003 -7.185863 -2.481594 121.062644 0.000003 0.000000 -10.450895 1182.537535 -181.939724 1262.074486 -0.000003 0.000002 -12.539194 101.337201 187.621198 -225.210311 2.442591 -0.601396 -2.767502 123.269451 3.327311 126.419343 -0.000001 -0.000004 -17.033707 -468.302686 37.660843 424.333808 0.000002 -0.000002 -19.318800 -158.168193 155.426460 550.685477 -3.126202 -0.601397 -2.283498 -118.201765 -38.453231 -108.892019 -0.000004 -0.000003 -16.919395 417.936625 -39.182634 -142.713128 -0.000005 -0.000003 -18.035894 221.250878 49.318101 -79.202525
18.176302 37.883305 10.186493 -47.099181 26.310177 -21.163206 -0.128496 0.160397 6.566011 -0.119794 5.253621 24.341476 0.000001 -0.000002 3.554805 -3.721473 -10.728559 -1.442081 0.000000 0.000003 8.268000 25.676372 -10.932779 25.836589 0.000000 0.000005 2.173899 5.279857 -8.328141 4.740024 2.057504 0.117607 5.946303 11.075544 -13.584503 18.429338 4.957693 0.000007 0.000007 -22.446966 -19.399756 -106.047689 0.000002 -0.000001 -8.465506 816.549771 -115.535491 415.228373 0.000003 -0.000000 -14.594900 -992.492603 -12.460767 -286.482149 -3.048501 -0.728796 6.604106 36.444032 10.342795 13.151708 -3.710294 -0.000001 -0.000001 -7.066107 -2.450453 121.732836 0.000002 0.000000 -10.450895 1182.215915 -181.878649 1262.141040 0.000003 0.000002 -12.539198 101.197818 187.458927 -225.117516 2.442594 -0.601399 -2.767505 123.284915 3.637591 126.317737 -0.000002 -0.000002 -17.033707 -468.496336 37.645079 424.487186 0.000001 -0.000001 -19.318800 -158.257778 155.453043 550.655370 -3.126199 -0.601397 -2.283499 -118.248210 -38.593198 -108.969364 -0.000003 -0.000002 -16.919395 417.855373 -39.215425 -142.758098 -0.000000 -0.000002 -18.035896 221.182330 49.312207 -79.166612
18.173103 37.880108 10.185196 -47.056066 26.400245 -21.311604 -0.128498 0.160405 6.566006 -0.188194 5.149050 24.640300 0.000001 0.000002 3.554809 -3.665651 -10.702772 -1.431717 -0.000002 0.000003 8.267998 25.556345 -11.030755 25.757859 0.000000 0.000005 2.173898 5.211498 -8.313558 4.668021 2.057505 0.117600 5.946304 10.975953 -13.587574 18.298415 4.957704 0.000007 0.000000 -22.501676 -19.313501 -106.059034 0.000001 -0.000000 -8.465504 816.904832 -115.582961 415.791509 -0.000002 0.000003 -14.594899 -991.962034 -12.067375 -285.698972 -3.048501 -0.728801 6.604103 36.057532 10.181021 12.688677 -3.710294 -0.000005 0.000005 -6.916649 -2.179006 122.051068 0.000003 -0.000001 -10.450891 1182.195260 -181.918960 1262.219068 0.000007 0.000001 -12.539192 100.800123 187.298048 -225.178004 2.442594 -0.601395 -2.767506 123.277579 3.945200 126.306904 -0.000004 -0.000005 -17.033707 -468.640917 37.639649 424.608299 0.000003 -0.000001 -19.318798 -158.358824 155.440257 550.587396 -3.126197 -0.601397 -2.283499 -118.364610 -38.697137 -109.121609 -0.000004 -0.000004 -16.919397 417.740134 -39.262164 -142.801087 -0.000003 -0.000001 -18.035894 221.101980 49.304229 -79.125911
